<?xml version="1.0" encoding="UTF-8" standalone="no"?>
<!-- Generator: Adobe Illustrator 17.1.0, SVG Export Plug-In . SVG Version: 6.00 Build 0)  -->

<svg
   xmlns:dc="http://purl.org/dc/elements/1.1/"
   xmlns:cc="http://creativecommons.org/ns#"
   xmlns:rdf="http://www.w3.org/1999/02/22-rdf-syntax-ns#"
   xmlns:svg="http://www.w3.org/2000/svg"
   xmlns="http://www.w3.org/2000/svg"
   xmlns:sodipodi="http://sodipodi.sourceforge.net/DTD/sodipodi-0.dtd"
   xmlns:inkscape="http://www.inkscape.org/namespaces/inkscape"
   version="1.1"
   id="Capa_1"
   x="0px"
   y="0px"
   viewBox="0 0 98.750489 166.75353"
   xml:space="preserve"
   inkscape:version="0.47 r22583"
   width="100%"
   height="100%"
   sodipodi:docname="lumiere-off-noir.svg"><metadata
   id="metadata33"><rdf:RDF><cc:Work
       rdf:about=""><dc:format>image/svg+xml</dc:format><dc:type
         rdf:resource="http://purl.org/dc/dcmitype/StillImage" /><dc:title></dc:title></cc:Work></rdf:RDF></metadata><defs
   id="defs31"><inkscape:perspective
     sodipodi:type="inkscape:persp3d"
     inkscape:vp_x="0 : 100 : 1"
     inkscape:vp_y="0 : 1000 : 0"
     inkscape:vp_z="200 : 100 : 1"
     inkscape:persp3d-origin="100 : 66.666667 : 1"
     id="perspective35" /></defs><sodipodi:namedview
   pagecolor="#ffffff"
   bordercolor="#666666"
   borderopacity="1"
   objecttolerance="10"
   gridtolerance="10"
   guidetolerance="10"
   inkscape:pageopacity="0"
   inkscape:pageshadow="2"
   inkscape:window-width="2211"
   inkscape:window-height="1171"
   id="namedview29"
   showgrid="false"
   inkscape:zoom="5.5356308"
   inkscape:cx="49.360967"
   inkscape:cy="83.333695"
   inkscape:window-x="0"
   inkscape:window-y="0"
   inkscape:window-maximized="0"
   inkscape:current-layer="g3" />
<g
   id="g3"
   transform="translate(-50.639033,-28.449165)">
	
	
	
	
	
	
	
	
	
	
	
	
<path
   style="fill:#ffffff;fill-opacity:1;stroke:none"
   d="m 98.854015,28.455967 c -11.718302,0.219255 -23.358753,4.813 -31.954464,12.798109 -4.402132,4.004752 -8.176413,8.70823 -10.856975,14.036354 -5.84057,11.189806 -7.060666,24.72876 -3.101351,36.736658 2.80901,9.197792 7.509864,17.644122 11.571492,26.318612 4.216951,8.57425 8.415261,17.47969 9.156983,27.1468 0.166308,1.68391 1.75e-4,4.14668 2.061385,4.70321 4.585599,0.41628 9.216242,0.15865 13.819562,0.24557 11.239083,-0.0388 22.482283,0.11877 33.718673,-0.12184 1.62741,0.13866 2.94219,-1.28347 2.88511,-2.87861 0.37954,-6.25915 1.82285,-12.42588 4.23958,-18.21157 4.50265,-11.24576 10.85476,-21.66044 15.18571,-32.979528 2.53934,-6.741754 4.2393,-13.928508 3.71457,-21.17532 -0.56903,-12.488938 -6.24775,-24.643896 -15.44539,-33.10937 -8.676,-8.490271 -20.71378,-13.297263 -32.82147,-13.50343 -0.72427,-0.01927 -1.449003,-0.01203 -2.173415,-0.0056 z"
   id="path2815" /><path
   style="fill:#ffffff;fill-opacity:1;stroke:none"
   d="m 93.112799,157.70389 c -4.343794,0.087 -8.712433,-0.11506 -13.040519,0.23145 -4.099223,0.71814 -6.724388,5.25995 -5.723556,9.21534 0.648707,3.44053 4.080659,6.17093 7.609068,5.7615 12.570779,0.12739 25.146598,0.19202 37.715888,-0.0395 3.67683,-0.49407 6.44023,-4.1276 6.15897,-7.79608 -0.0121,-3.9797 -3.62124,-7.55474 -7.64367,-7.28237 -8.35786,-0.11975 -16.71763,-0.10931 -25.076181,-0.0903 z"
   id="path2817" /><path
   style="fill:#ffffff;fill-opacity:1;stroke:none"
   d="m 99.638704,180.1268 c -5.500389,0.0944 -11.020012,-0.1511 -16.5067,0.29356 -3.852366,0.80118 -6.684577,5.01725 -5.65846,8.89295 0.73709,3.45565 4.191306,6.17447 7.752846,5.82985 10.67452,0.12516 21.35042,0.0125 32.02548,0.0226 2.75744,-1.0085 5.28816,-3.19206 5.75251,-6.22106 0.909,-4.35302 -2.91074,-8.88895 -7.35551,-8.72563 -5.33215,-0.21231 -10.67501,-0.082 -16.010166,-0.0923 z"
   id="path2819" /></g>
</svg>