<?xml version="1.0" encoding="UTF-8" standalone="no"?>
<!-- Generator: Adobe Illustrator 17.1.0, SVG Export Plug-In . SVG Version: 6.00 Build 0)  -->

<svg
   xmlns:dc="http://purl.org/dc/elements/1.1/"
   xmlns:cc="http://creativecommons.org/ns#"
   xmlns:rdf="http://www.w3.org/1999/02/22-rdf-syntax-ns#"
   xmlns:svg="http://www.w3.org/2000/svg"
   xmlns="http://www.w3.org/2000/svg"
   xmlns:sodipodi="http://sodipodi.sourceforge.net/DTD/sodipodi-0.dtd"
   xmlns:inkscape="http://www.inkscape.org/namespaces/inkscape"
   version="1.1"
   id="Capa_1"
   x="0px"
   y="0px"
   viewBox="0 0 149.1278 191.65524"
   xml:space="preserve"
   inkscape:version="0.47 r22583"
   width="100%"
   height="100%"
   sodipodi:docname="lumiere-on-noir.svg"><metadata
   id="metadata33"><rdf:RDF><cc:Work
       rdf:about=""><dc:format>image/svg+xml</dc:format><dc:type
         rdf:resource="http://purl.org/dc/dcmitype/StillImage" /><dc:title></dc:title></cc:Work></rdf:RDF></metadata><defs
   id="defs31"><inkscape:perspective
     sodipodi:type="inkscape:persp3d"
     inkscape:vp_x="0 : 100 : 1"
     inkscape:vp_y="0 : 1000 : 0"
     inkscape:vp_z="200 : 100 : 1"
     inkscape:persp3d-origin="100 : 66.666667 : 1"
     id="perspective35" /></defs><sodipodi:namedview
   pagecolor="#ffffff"
   bordercolor="#666666"
   borderopacity="1"
   objecttolerance="10"
   gridtolerance="10"
   guidetolerance="10"
   inkscape:pageopacity="0"
   inkscape:pageshadow="2"
   inkscape:window-width="2504"
   inkscape:window-height="1272"
   id="namedview29"
   showgrid="false"
   inkscape:zoom="5.3479287"
   inkscape:cx="74.54658"
   inkscape:cy="95.86816"
   inkscape:window-x="0"
   inkscape:window-y="0"
   inkscape:window-maximized="0"
   inkscape:current-layer="Capa_1" />

<path
   style="fill:#ffffff;fill-opacity:1;stroke:none"
   d="M 73.706302,24.729197 C 58.77968,24.855333 44.200867,32.319533 35.233463,44.228568 26.1781,55.984954 22.731042,72.055992 26.918328,86.376896 c 3.366354,11.847665 9.642411,22.543524 14.751844,33.674254 3.460395,7.43354 6.408488,15.32355 6.675844,23.60844 -0.07838,1.89782 1.84958,3.32584 3.657958,2.98597 15.357181,0.15351 30.718776,0.21639 46.075086,-0.006 1.6485,-0.15415 2.84089,-1.70334 2.70272,-3.33014 0.38111,-10.72084 5.11357,-20.58045 9.75318,-30.03124 5.28011,-11.02232 11.53813,-21.979757 13.13848,-34.292456 0.72748,-7.662748 -0.20538,-15.494908 -3.03308,-22.673188 -6.13483,-16.11689 -21.26429,-28.49742 -38.3735,-30.987464 -2.82994,-0.437893 -5.69708,-0.641846 -8.560558,-0.596025 z"
   id="path2841" /><path
   style="fill:#ffffff;fill-opacity:1;stroke:none"
   d="m 52.968133,154.76786 c -4.034195,1.77512 -5.454901,7.18912 -3.237235,10.88622 1.312731,2.32598 3.992038,3.75627 6.661317,3.47768 12.850968,0.12341 25.703305,0.004 38.554785,0.0108 2.65554,-0.938 4.84461,-3.18216 5.31164,-6.01284 0.85297,-3.87894 -1.90346,-8.36146 -5.8726,-8.94622 -13.40083,0 -26.801656,0 -40.202484,0 -0.405141,0.19478 -0.810282,0.38956 -1.215423,0.58434 z"
   id="path2843" /><path
   style="fill:#ffffff;fill-opacity:1;stroke:none"
   d="m 69.277017,176.35332 c -4.038604,0.1083 -8.133087,-0.22571 -12.130865,0.43825 -3.676912,1.14751 -6.199697,5.34626 -5.048684,9.11568 0.876479,3.65921 4.815829,5.99386 8.45528,5.65321 10.107922,0.0918 20.221852,0.18074 30.327262,-0.0611 4.22554,-0.46757 7.68392,-4.81183 6.62055,-9.05725 -0.7176,-3.42221 -4.04529,-6.15123 -7.58444,-5.95865 -6.87528,-0.23081 -13.76075,-0.099 -20.639103,-0.13015 z"
   id="path2845" /><path
   style="fill:#ffffff;fill-opacity:1;stroke:none"
   d="m 19.953014,95.895768 c -2.351219,0.774113 -4.373376,2.361303 -6.573994,3.489493 -2.068799,1.319589 -4.4523178,2.261949 -6.2288598,3.978349 -1.421991,1.92407 0.360845,4.1024 1.243536,5.82898 1.6868408,2.87063 3.2441048,5.84317 5.1608128,8.56328 1.391948,1.3263 3.42416,0.69807 4.803042,-0.2896 3.146947,-1.85481 6.435471,-3.548 9.355477,-5.74078 1.308015,-1.71153 0.05742,-3.88674 -0.716145,-5.54687 -1.522924,-3.01848 -2.550409,-6.285739 -4.250731,-9.207669 -0.5868,-0.993775 -1.742474,-1.147688 -2.793138,-1.075183 z"
   id="path2847" /><path
   style="fill:#ffffff;fill-opacity:1;stroke:none"
   d="m 5.1108192,65.556919 c -1.563006,0.11756 -3.622102,-0.410561 -4.55199603,1.268015 -1.01141,1.11988 -0.301117,2.763116 -0.495171,4.13118 0.134101,3.684243 -0.18562,7.411606 0.325713,11.067461 0.65229003,1.689332 2.87838903,1.527472 4.36500803,1.55434 3.907404,-0.05837 7.8445258,0.21252 11.7335148,-0.175302 1.75552,-0.426796 2.521065,-2.396651 2.068557,-4.031934 -0.564391,-3.357128 -0.444238,-6.771892 -0.01169,-10.132428 0.182874,-1.338087 -0.305746,-2.706369 -1.524468,-3.388068 -1.064655,-0.656178 -2.528716,-0.130093 -3.757951,-0.299107 -2.717173,0.002 -5.4343638,-0.0051 -8.1515208,0.0058 z"
   id="path2849" /><path
   style="fill:#ffffff;fill-opacity:1;stroke:none"
   d="m 15.395175,30.590111 c -2.18375,0.06611 -2.836816,2.496681 -3.901231,3.981319 -1.6235538,2.862786 -3.5325838,5.611388 -4.7937238,8.652076 -0.482134,1.693253 0.658045,3.29575 2.2037,3.906367 3.5385238,2.059018 7.0718428,4.148806 10.7452378,5.957265 1.420012,0.345248 2.958169,-0.338854 3.476814,-1.741328 1.755084,-3.496966 3.793012,-6.835619 5.919347,-10.114897 0.961156,-1.643555 -0.110096,-3.684111 -1.753015,-4.376695 -3.630215,-2.155168 -7.241853,-4.389723 -11.055682,-6.19983 -0.275979,-0.05817 -0.559735,-0.08448 -0.841447,-0.06428 z"
   id="path2851" /><path
   style="fill:#ffffff;fill-opacity:1;stroke:none"
   d="m 43.723899,6.5621174 c -2.781006,0.944526 -5.194548,2.762334 -7.789565,4.1217256 -1.817026,1.292264 -4.566581,1.871788 -5.299614,4.234312 -0.360304,2.085452 1.39858,3.718341 2.182937,5.500861 1.645113,2.746075 3.109794,5.632786 4.951834,8.242778 1.513073,1.282356 3.672936,0.607628 5.021915,-0.570357 2.989359,-2.152344 6.390962,-3.637656 9.493051,-5.588569 1.445963,-1.264492 0.847202,-3.430406 -0.113186,-4.79781 -1.983015,-3.454064 -3.866956,-6.991126 -6.092488,-10.2898066 -0.619847,-0.594889 -1.503827,-0.885605 -2.354884,-0.853134 z"
   id="path2853" /><path
   style="fill:#ffffff;fill-opacity:1;stroke:none"
   d="m 66.998097,0.42656401 c -1.20355,0.61771349 -1.49644,1.93340849 -1.392229,3.17272459 -0.0081,4.2409818 -0.255841,8.5034274 0.04241,12.7329654 0.390904,1.856508 2.509532,2.74942 4.23061,2.214643 3.484041,-0.651388 7.023532,-0.306691 10.512242,0.05843 1.94998,0.225296 3.46465,-1.763488 3.16127,-3.605368 C 83.5998,10.796288 83.79103,6.5708644 83.4764,2.3782502 83.2084,1.1646486 82.31008,0.06024541 80.9521,0.18698531 76.51582,-0.02802429 72.06954,0.07593271 67.629183,-2.9911258e-6 67.418821,0.14218601 67.208459,0.28437501 66.998097,0.42656401 z"
   id="path2855" /><path
   style="fill:#ffffff;fill-opacity:1;stroke:none"
   d="m 104.81648,6.5971774 c -2.23866,0.26324 -2.83117,2.775862 -3.98159,4.3269546 -1.58507,2.796311 -3.41729,5.490053 -4.72505,8.423308 -0.48949,1.536919 0.16804,3.309576 1.74717,3.885851 3.53797,1.63288 6.79071,3.790078 10.08568,5.843383 1.79994,0.925746 3.82128,-0.348047 4.51693,-2.074401 2.08813,-3.598219 4.26202,-7.178052 6.05375,-10.927128 0.24856,-1.624741 -0.91053,-3.01377 -2.33926,-3.620863 -3.48587,-2.051036 -6.9534,-4.1882996 -10.64474,-5.8454176 -0.23611,-0.02799 -0.47601,-0.03294 -0.71289,-0.01169 z"
   id="path2857" /><path
   style="fill:#ffffff;fill-opacity:1;stroke:none"
   d="m 133.43153,30.619328 c -2.07367,0.259439 -3.74056,1.782059 -5.58412,2.666835 -2.44816,1.522931 -5.13324,2.733542 -7.39404,4.520527 -1.40016,1.540577 -0.45006,3.750866 0.6603,5.159708 2.06349,2.945725 3.56611,6.233463 5.4811,9.261763 1.12259,1.464213 3.26838,0.969179 4.57287,0.02965 3.54694,-2.003563 7.21223,-3.86114 10.52643,-6.235323 1.32367,-1.150846 0.80151,-2.982222 0.004,-4.269302 -1.93525,-3.461095 -3.77293,-7.003414 -6.04609,-10.25735 -0.51896,-0.727863 -1.34852,-0.98956 -2.22048,-0.876507 z"
   id="path2859" /><path
   style="fill:#ffffff;fill-opacity:1;stroke:none"
   d="m 138.5328,65.463425 c -2.06337,0.107567 -4.2086,-0.159437 -6.2232,0.303856 -1.53026,0.677824 -2.16071,2.434543 -1.75647,4.001654 0.6034,3.529581 0.36164,7.112272 -0.1251,10.636023 -0.12529,1.862677 1.60389,3.427052 3.44759,3.137897 4.43432,-0.01583 8.89038,0.130271 13.31123,-0.192832 1.13956,-0.461551 2.16957,-1.724823 1.89658,-3.009311 -0.11643,-4.292391 0.12216,-8.607079 -0.27212,-12.884693 -0.31404,-1.780234 -2.58073,-2.029168 -4.05526,-1.978958 -2.07414,-0.03035 -4.14894,-0.01977 -6.22325,-0.01364 z"
   id="path2861" /><path
   style="fill:#ffffff;fill-opacity:1;stroke:none"
   d="m 128.45881,95.837334 c -1.82205,-0.01514 -2.73947,1.708357 -3.26376,3.197727 -1.36488,3.474669 -3.26295,6.738609 -4.42029,10.288799 -0.5397,2.00073 1.39957,3.3697 2.96206,4.09694 3.01101,1.67388 5.92535,3.57024 9.04025,5.03043 1.74835,0.46522 3.22683,-0.87764 3.91507,-2.35489 1.96448,-3.48347 4.21306,-6.84444 5.7791,-10.52977 0.38206,-1.78773 -1.13968,-3.02034 -2.56612,-3.70279 -3.4859,-2.041269 -6.91931,-4.233869 -10.57565,-5.944639 -0.28255,-0.07422 -0.57977,-0.09145 -0.87066,-0.08181 z"
   id="path2863" /></svg>